<?xml version="1.0" encoding="UTF-8"?>
<svg width="88px" height="93px" viewBox="0 0 88 93" version="1.1" xmlns="http://www.w3.org/2000/svg" xmlns:xlink="http://www.w3.org/1999/xlink">
    <!-- Generator: Sketch 42 (36781) - http://www.bohemiancoding.com/sketch -->
    <title>Page 1</title>
    <desc>Created with Sketch.</desc>
    <defs>
        <polygon id="path-1" points="4.36452374e-15 48.5447588 4.36452374e-15 0.00910734463 87.9744573 0.00910734463 87.9744573 48.5447588 0 48.5447588"></polygon>
    </defs>
    <g id="Page-1" stroke="none" stroke-width="1" fill="none" fill-rule="evenodd">
        <g id="Desktop-HD" transform="translate(-676.000000, -1011.000000)">
            <g id="Page-1" transform="translate(676.000000, 1011.000000)">
                <path d="M39.9790123,33.1014672 C39.9790123,33.1014672 42.9204517,43.370874 42.6261853,48.9655859 C43.5086346,53.0880605 52.3329527,60.8193203 49.3916883,75.2481565 C48.8031555,77.6038062 53.5096684,92.9908401 53.5096684,92.9908401 L67.0401495,92.9908401 C67.0401495,92.9908401 76.158559,92.2349305 75.5703761,83.6953938 C75.2761097,82.2231565 68.2166903,66.9011 64.3928016,61.306213 C63.8046187,58.3617384 57.7882529,41.5721734 57.7882529,41.5721734 C57.0392907,38.9221113 55.5684835,30.9691226 55.5684835,30.0857102 C55.5684835,29.2022977 37.4487062,20.5851734 39.9790123,33.1014672" id="Fill-1" fill="#DD999B"></path>
                <g id="Group-5" transform="translate(0.000000, 0.166034)">
                    <mask id="mask-2" fill="white">
                        <use xlink:href="#path-1"></use>
                    </mask>
                    <g id="Clip-4"></g>
                    <path d="M38.2141312,13.4271859 C35.4716103,13.3024853 33.1157296,3.41541186 29.7820517,6.36006158 C26.644493,4.59323672 22.1342744,0.274428814 17.6242306,3.41541186 C14.6827913,2.04125367 3.89745527,-4.24053729 0.760071571,4.78957006 C0.563777336,8.32304463 -1.39706561,13.4271859 9.38809543,13.4271859 C9.38809543,14.6050107 13.8983141,16.9606605 18.4085328,14.9976774 C20.1734314,14.8013441 25.8601909,16.1755023 25.8601909,16.9606605 C25.8601909,16.9606605 11.3491133,18.3348186 11.5452326,22.6538017 C12.3295348,23.8316266 13.8983141,25.5984514 15.5652406,25.2056096 C13.8983141,25.5984514 -3.0975825,35.2175588 0.497996024,45.8181576 C3.30927237,47.5849825 9.19215109,51.5111237 12.9178926,44.6403328 C14.2905527,44.6403328 15.4670934,44.6403328 17.6242306,43.8549994 C22.9187515,39.7325249 23.899173,35.8121633 28.2132724,36.0056944 C30.7624732,35.8063836 33.1157296,35.8063836 33.1157296,33.8434006 C33.1157296,33.8434006 46.6462107,36.1990503 46.4500915,28.7392593 C46.4500915,28.7392593 49.3917058,26.7762763 49.3917058,28.9355927 C49.3917058,31.094909 51.7447873,36.0027169 60.7650497,33.6470672 C63.5103698,35.6100503 66.0595706,37.3826548 69.9816064,36.0056944 C70.7659085,37.7695418 72.1385686,40.3215249 77.2371451,38.4566209 C77.6292087,40.5178582 78.2175666,41.3031915 82.7277853,41.4993497 C83.7082068,43.0698412 87.238004,43.8549994 86.0612883,38.4566209 C85.865169,35.4138921 87.7838489,34.6285588 87.7838489,34.6285588 C87.7838489,34.6285588 89.0029026,30.7024175 85.2769861,30.7024175 C84.8849225,29.131926 76.452668,20.6906435 65.4713877,20.2979768 C66.4518091,18.1386605 73.119165,18.5313271 74.0995865,16.9606605 C75.6683658,17.5496605 85.5845487,22.261135 87.7838489,17.3533271 C85.6692247,12.6420277 82.5314911,6.16372825 70.37367,6.55639492 C69.9816064,5.57490339 66.8438728,3.0227452 64.4907913,5.96739492 C64.4907913,5.96739492 47.4306879,4.59323672 47.0382744,7.53788644 C47.0382744,7.53788644 41.5478091,6.36006158 41.5478091,8.7157113 C41.5478091,9.69737797 42.5282306,13.6235192 38.2141312,13.4271859" id="Fill-3" fill="#259167" mask="url(#mask-2)"></path>
                </g>
            </g>
        </g>
    </g>
</svg>